<?xml version="1.0" encoding="UTF-8" standalone="no"?>
<svg
   width="250"
   height="250"
   fill="none"
   viewBox="0 0 250 250"
   version="1.1"
   id="svg16"
   sodipodi:docname="ari-symbolic.svg"
   inkscape:version="1.4.3 (0d15f75042, 2025-12-25)"
   xmlns:inkscape="http://www.inkscape.org/namespaces/inkscape"
   xmlns:sodipodi="http://sodipodi.sourceforge.net/DTD/sodipodi-0.dtd"
   xmlns="http://www.w3.org/2000/svg"
   xmlns:svg="http://www.w3.org/2000/svg">
  <sodipodi:namedview
     id="namedview16"
     pagecolor="#ffffff"
     bordercolor="currentColor"
     borderopacity="0.25"
     inkscape:showpageshadow="2"
     inkscape:pageopacity="0.0"
     inkscape:pagecheckerboard="0"
     inkscape:deskcolor="#d1d1d1"
     inkscape:zoom="4.64"
     inkscape:cx="124.89224"
     inkscape:cy="125"
     inkscape:window-width="2560"
     inkscape:window-height="1371"
     inkscape:window-x="0"
     inkscape:window-y="0"
     inkscape:window-maximized="1"
     inkscape:current-layer="svg16" />
  <!-- SVG created with Arrow, by QuiverAI (https://quiver.ai) -->
  <path
     d="m239.1 66.77h-29.06c-4.5 0-6.61 3.19-6.61 6.85v24.3c0 3.8 2.21 6 6.02 6h29.06c4.83 0 6.26-2.75 6.26-6v-25.29c0-3.25-2.42-5.86-5.67-5.86z"
     fill="url(#paint0_linear_626_8589)"
     stroke="#F32828"
     stroke-miterlimit="10"
     stroke-width=".5"
     id="path1"
     style="fill:currentColor;fill-opacity:1;stroke:none" />
  <path
     d="m 116.1,172.5 -7.11,16.39 c -1.46,3.56 0.09,6.9 4.8,6.9 h 54.37 L 151.12138,169.41946 120.93,169.17 c -2.29992,-0.019 -3.81,0.94 -4.83,3.33 z"
     fill="url(#paint1_linear_626_8589)"
     stroke="#F32828"
     stroke-miterlimit="10"
     stroke-width="0.5"
     id="path2"
     style="fill:currentColor;fill-opacity:1;stroke:none"
     sodipodi:nodetypes="ccsccsc" />
  <path
     d="m160.6 39.74c-2.51-5.23-5.17-6.74-11.95-6.74h-55.48c-7.29 0-11.19 3.76-13.25 8.74l-74.65 165c-1.97 4.44 0.09 8.44 5.69 8.44h55.03c5.97 0 8.82-2.4 10.98-7.39l43.28-95.68h3.25c4.05 0 5.93 1.69 7.53 5.72 1.23 2.66 3.24 3.13 6.4 3.13h55.07c3.71 0 3.95-2.06 2.72-4.72l-34.62-76.53z"
     fill="url(#paint2_linear_626_8589)"
     stroke="#F32828"
     stroke-miterlimit="10"
     stroke-width=".5"
     id="path3"
     style="fill:currentColor;stroke:none;stroke-opacity:1;fill-opacity:1" />
  <path
     d="m146.3 140.3c-4.4 0-5.99 3.85-4.35 8.1l26.76 61.33c1.78 3.9 4.99 5.47 9.59 5.47h52.63c6.02 0 6.87-4.35 4.81-8.53l-29.19-60.97c-1.83-3.66-4.34-5.4-8.05-5.4h-52.2z"
     fill="url(#paint3_linear_626_8589)"
     stroke="#F32828"
     stroke-miterlimit="10"
     stroke-width=".5"
     id="path4"
     style="fill:currentColor;fill-opacity:1;stroke:none" />
  <path
     d="m160 38.8c-2.06-4.14-4.77-5.8-11.38-5.8h-55.48c-7.29 0-10.97 3.7-13.25 8.74l-74.65 165c-1.97 4.44 0.09 8.44 5.69 8.44h55.03c5.97 0 8.82-2.4 10.98-7.39l75.98-167.8c2.01-4.53 5.02-5.01 7.08-1.17z"
     fill="url(#paint4_linear_626_8589)"
     stroke="#FE492A"
     stroke-miterlimit="10"
     stroke-width=".5"
     id="path5"
     style="fill:currentColor;fill-opacity:1;stroke:none"
     inkscape:label="Big" />
  <defs
     id="defs16">
    <linearGradient
       id="paint0_linear_626_8589"
       x1="207.1"
       x2="229.8"
       y1="67.92"
       y2="106.4"
       gradientUnits="userSpaceOnUse">
      <stop
         stop-color="#FE7A26"
         offset="0"
         id="stop5" />
      <stop
         stop-color="#FD4E25"
         offset="1"
         id="stop6" />
    </linearGradient>
    <linearGradient
       id="paint1_linear_626_8589"
       x1="110.6"
       x2="128.9"
       y1="174"
       y2="203.4"
       gradientUnits="userSpaceOnUse">
      <stop
         stop-color="#F02828"
         offset="0"
         id="stop7" />
      <stop
         stop-color="#FD6A21"
         offset="1"
         id="stop8" />
    </linearGradient>
    <linearGradient
       id="paint2_linear_626_8589"
       x1="136.95602"
       x2="192.5"
       y1="75.246056"
       y2="120.96"
       gradientUnits="userSpaceOnUse">
      <stop
         stop-color="#D21D1D"
         offset="0"
         id="stop11"
         style="stop-color:#d01717;stop-opacity:1;" />
      <stop
         stop-color="#FA521F"
         offset="0.31035542"
         id="stop10"
         style="stop-color:#db2017;stop-opacity:1;" />
      <stop
         stop-color="#FFA322"
         offset="1"
         id="stop9"
         style="stop-color:#f73e1e;stop-opacity:1;" />
    </linearGradient>
    <linearGradient
       id="paint3_linear_626_8589"
       x1="160.5"
       x2="204.2"
       y1="142.3"
       y2="216.9"
       gradientUnits="userSpaceOnUse">
      <stop
         stop-color="#FE8823"
         offset="0"
         id="stop12" />
      <stop
         stop-color="#FF9F24"
         offset="1"
         id="stop13" />
    </linearGradient>
    <linearGradient
       id="paint4_linear_626_8589"
       x1="37.84"
       x2="92.9"
       y1="35.84"
       y2="141"
       gradientUnits="userSpaceOnUse">
      <stop
         stop-color="#FFA322"
         offset="0"
         id="stop14"
         style="stop-color:#fca72e;stop-opacity:1;" />
      <stop
         stop-color="#FA5A1F"
         offset="0.58929944"
         id="stop15"
         style="stop-color:#fe7322;stop-opacity:1;" />
      <stop
         stop-color="#F5361A"
         offset="1"
         id="stop16"
         style="stop-color:#f83a1d;stop-opacity:1;" />
    </linearGradient>
  </defs>
</svg>
